<svg width="176" height="181" viewBox="0 0 176 181" fill="none" xmlns="http://www.w3.org/2000/svg">
<path d="M88 0L113.863 53.892L171.693 62.534L129.846 104.483L139.725 163.716L88 135.75L36.2749 163.716L46.1535 104.483L4.30703 62.534L62.1375 53.892L88 0Z" fill="black"/>
<circle cx="88" cy="90" r="65" fill="black"/>
<path d="M55.9219 76.1719C57.2969 76.2344 58.4688 76.2812 59.4375 76.3125C60.4062 76.3438 61.2031 76.375 61.8281 76.4062C62.5781 76.4375 63.1875 76.4688 63.6562 76.5C64.1562 76.5312 64.7812 76.5469 65.5312 76.5469C66.8125 76.5469 68.625 76.4531 70.9688 76.2656C70.4688 76.5156 70.0781 76.7969 69.7969 77.1094C69.5156 77.3906 69.2969 77.6719 69.1406 77.9531C68.9531 78.2969 68.8125 78.625 68.7188 78.9375C68.6562 79.3125 68.7969 79.8906 69.1406 80.6719C69.3906 81.3281 69.8438 82.2188 70.5 83.3438C71.1562 84.4688 72.125 85.9219 73.4062 87.7031C74.9375 85.4531 76.125 83.6875 76.9688 82.4062C77.8125 81.125 78.4375 80.1562 78.8438 79.5C79.3125 78.7188 79.5938 78.2031 79.6875 77.9531C79.6562 77.7969 79.5312 77.5781 79.3125 77.2969C79.125 77.0469 78.8125 76.75 78.375 76.4062C77.9688 76.0312 77.3594 75.5781 76.5469 75.0469C77.8281 75.2344 78.8906 75.375 79.7344 75.4688C80.6094 75.5625 81.3125 75.625 81.8438 75.6562C82.4688 75.6875 82.9844 75.6875 83.3906 75.6562C83.7969 75.625 84.3906 75.5938 85.1719 75.5625C85.8281 75.5312 86.7031 75.5 87.7969 75.4688C88.9219 75.4375 90.3594 75.3906 92.1094 75.3281C91.4219 75.6719 90.8281 76 90.3281 76.3125C89.8281 76.625 89.4062 76.9062 89.0625 77.1562C88.6562 77.4688 88.2969 77.7344 87.9844 77.9531C87.6094 78.3281 86.9219 79.0938 85.9219 80.25C85.0781 81.25 83.875 82.7188 82.3125 84.6562C80.75 86.5625 78.6562 89.1562 76.0312 92.4375C78.1562 94.6875 79.875 96.4688 81.1875 97.7812C82.5 99.0938 83.5312 100.094 84.2812 100.781C85.1562 101.594 85.7969 102.141 86.2031 102.422C86.5781 102.641 87.0938 102.922 87.75 103.266C88.3125 103.578 89.0469 103.969 89.9531 104.438C90.8594 104.875 92.0156 105.406 93.4219 106.031H85.5938C84.9375 106.031 84.1406 106.062 83.2031 106.125C82.3906 106.188 81.3906 106.25 80.2031 106.312C79.0156 106.375 77.625 106.484 76.0312 106.641C76.5938 106.297 77 105.969 77.25 105.656C77.5312 105.312 77.7188 105.016 77.8125 104.766C77.9375 104.484 77.9531 104.234 77.8594 104.016C77.7031 103.703 77.4375 103.234 77.0625 102.609C76.7188 102.078 76.2344 101.328 75.6094 100.359C74.9844 99.3906 74.125 98.1094 73.0312 96.5156C71.7812 97.8594 70.8125 98.9844 70.125 99.8906C69.4688 100.766 68.9688 101.469 68.625 102C68.25 102.625 68 103.125 67.875 103.5C67.875 103.844 67.9531 104.188 68.1094 104.531C68.2656 104.844 68.5156 105.188 68.8594 105.562C69.2344 105.938 69.7812 106.297 70.5 106.641L56.625 107.25C57.75 106.469 58.6875 105.766 59.4375 105.141C60.1875 104.484 60.7969 103.938 61.2656 103.5C61.7969 102.969 62.2188 102.5 62.5312 102.094C62.8438 101.625 63.3281 100.938 63.9844 100.031C64.5156 99.25 65.25 98.2031 66.1875 96.8906C67.1562 95.5781 68.3906 93.8906 69.8906 91.8281C68.2344 89.1719 66.8906 87.0625 65.8594 85.5C64.8594 83.9375 64.0469 82.7344 63.4219 81.8906C62.7031 80.9219 62.1719 80.25 61.8281 79.875C61.5156 79.5938 61.0781 79.2812 60.5156 78.9375C60.0469 78.625 59.4375 78.25 58.6875 77.8125C57.9375 77.3438 57.0156 76.7969 55.9219 76.1719ZM85.7344 74.4375C86.9219 74.7188 87.9844 74.9375 88.9219 75.0938C89.8906 75.2188 90.7031 75.3125 91.3594 75.375C92.1406 75.4688 92.8281 75.5 93.4219 75.4688C94.1719 75.4375 95.1094 75.3281 96.2344 75.1406C97.3594 74.9531 98.5469 74.7656 99.7969 74.5781C101.047 74.3906 102.281 74.2344 103.5 74.1094C104.719 73.9844 105.781 73.9688 106.688 74.0625C107.594 74.1562 108.547 74.375 109.547 74.7188C110.547 75.0312 111.484 75.4688 112.359 76.0312C113.234 76.5625 113.984 77.2188 114.609 78C115.266 78.7812 115.672 79.6875 115.828 80.7188C115.984 81.7188 115.891 82.7969 115.547 83.9531C115.203 85.0781 114.656 86.1875 113.906 87.2812C113.156 88.3438 112.219 89.3281 111.094 90.2344C109.969 91.1406 108.719 91.875 107.344 92.4375C106.25 92.8438 105.062 93.1562 103.781 93.375C102.688 93.5625 101.406 93.6875 99.9375 93.75C98.5 93.7812 96.9688 93.625 95.3438 93.2812C95.125 94.1875 95 95.0312 94.9688 95.8125C94.9688 96.5625 95 97.2344 95.0625 97.8281C95.1562 98.5156 95.2812 99.1406 95.4375 99.7031C95.625 100.266 95.8594 100.922 96.1406 101.672C96.3906 102.297 96.6719 103.062 96.9844 103.969C97.3281 104.844 97.7344 105.828 98.2031 106.922C97.6406 106.922 97.0938 106.938 96.5625 106.969C96.0312 106.969 95.5469 106.984 95.1094 107.016C94.6094 107.047 94.1406 107.078 93.7031 107.109C93.2031 107.141 92.6406 107.203 92.0156 107.297C91.4844 107.359 90.8125 107.453 90 107.578C89.2188 107.703 88.3281 107.859 87.3281 108.047C87.9844 107.109 88.5 106.25 88.875 105.469C89.2812 104.656 89.5781 103.953 89.7656 103.359C89.9844 102.672 90.125 102.047 90.1875 101.484C90.2188 101.016 90.2188 100.188 90.1875 99C90.1875 97.8125 90.1719 96.4375 90.1406 94.875C90.1094 93.3125 90.0625 91.6719 90 89.9531C89.9375 88.2344 89.8594 86.625 89.7656 85.125C89.6719 83.5938 89.5625 82.2812 89.4375 81.1875C89.3438 80.0938 89.25 79.375 89.1562 79.0312C89.0312 78.625 88.8125 78.1875 88.5 77.7188C88.25 77.3125 87.8906 76.8438 87.4219 76.3125C86.9844 75.75 86.4219 75.125 85.7344 74.4375ZM95.4375 83.6719C95.4062 83.9844 95.3906 84.3125 95.3906 84.6562C95.3906 85.3125 95.4375 86.1562 95.5312 87.1875C95.75 87.7188 96.0156 88.1562 96.3281 88.5C96.6719 88.8438 97.0312 89.1094 97.4062 89.2969C97.8125 89.4844 98.2188 89.6094 98.625 89.6719C99.0312 89.7344 99.4375 89.7656 99.8438 89.7656C100.781 89.7344 101.766 89.5156 102.797 89.1094C104.172 88.5156 105.141 87.6719 105.703 86.5781C106.266 85.4844 106.562 84.3594 106.594 83.2031C106.625 82.0469 106.422 80.9844 105.984 80.0156C105.578 79.0469 105.078 78.3906 104.484 78.0469C103.984 77.8281 103.344 77.7344 102.562 77.7656C101.875 77.7969 101.016 77.9688 99.9844 78.2812C98.9531 78.5938 97.6875 79.1562 96.1875 79.9688C96.0312 80.5312 95.9062 81.0312 95.8125 81.4688C95.7188 81.9062 95.6406 82.2969 95.5781 82.6406C95.5156 83.0156 95.4688 83.3594 95.4375 83.6719Z" fill="white"/>
</svg>
